<svg  xmlns="http://www.w3.org/2000/svg" viewBox="0 0 21.53 21.53"><g ><path d="M10.77,0C4.83,0,0,4.83,0,10.77s4.83,10.77,10.77,10.77,10.77-4.83,10.77-10.77S16.7,0,10.77,0Zm1.09,19.03c-.36,.05-.72,.07-1.09,.07s-.73-.03-1.09-.07c-.62-.54-1.21-1.52-1.65-2.83h5.48c-.44,1.31-1.03,2.29-1.65,2.83Zm-4.26-4.45c-.19-.94-.32-1.98-.36-3.1h7.07c-.04,1.13-.17,2.17-.36,3.1H7.59Zm-5.13-3.1h3.15c.03,1.1,.15,2.14,.32,3.1H3.36c-.49-.94-.8-1.99-.89-3.1ZM9.68,2.5c.36-.05,.72-.07,1.09-.07s.73,.03,1.09,.07c.59,.51,1.14,1.42,1.58,2.62h-5.33c.43-1.21,.99-2.11,1.58-2.62Zm4.22,4.25c.21,.93,.35,1.97,.4,3.1H7.24c.05-1.13,.19-2.17,.4-3.1h6.26Zm-8.28,3.1H2.48c.12-1.11,.46-2.16,.98-3.1h2.51c-.19,.96-.31,2-.36,3.1Zm10.3,1.62h3.15c-.09,1.11-.41,2.16-.89,3.1h-2.58c.18-.96,.29-2.01,.32-3.1Zm0-1.62c-.04-1.1-.17-2.14-.36-3.1h2.51c.52,.94,.86,1.99,.98,3.1h-3.14Zm.98-4.72h-1.75c-.21-.68-.46-1.31-.75-1.86,.95,.46,1.79,1.1,2.5,1.86ZM7.13,3.27c-.29,.56-.54,1.18-.75,1.86h-1.75c.71-.77,1.55-1.4,2.5-1.86Zm-2.68,12.93h1.87c.23,.77,.5,1.46,.81,2.07-1.03-.5-1.94-1.21-2.68-2.07Zm9.95,2.07c.31-.61,.59-1.31,.81-2.07h1.87c-.74,.86-1.65,1.57-2.68,2.07Z" style="fill:#fff;"/></g></svg>