<?xml version="1.0" encoding="UTF-8"?><svg xmlns="http://www.w3.org/2000/svg" viewBox="0 0 30.43 24.73"><g><path d="M30.43,2.93c-1.12,.5-2.32,.83-3.59,.98,1.29-.77,2.28-2,2.75-3.45-1.21,.72-2.54,1.24-3.96,1.52-1.14-1.21-2.76-1.97-4.56-1.97-3.45,0-6.24,2.8-6.24,6.24,0,.49,.06,.97,.16,1.42-5.19-.26-9.79-2.75-12.87-6.52-.54,.92-.85,1.99-.85,3.14,0,2.17,1.1,4.08,2.78,5.2-1.02-.03-1.99-.31-2.83-.78,0,.03,0,.05,0,.08,0,3.03,2.15,5.55,5.01,6.12-.52,.14-1.08,.22-1.65,.22-.4,0-.79-.04-1.17-.11,.79,2.48,3.1,4.29,5.83,4.34-2.14,1.67-4.83,2.67-7.75,2.67-.5,0-1-.03-1.49-.09,2.76,1.77,6.05,2.81,9.57,2.81,11.48,0,17.77-9.51,17.77-17.77,0-.27,0-.54-.02-.81,1.22-.88,2.28-1.98,3.12-3.23Z" style="fill:#282828;"/></g></svg>