<svg xmlns="http://www.w3.org/2000/svg" viewBox="0 0 25.45 16.97"><g><path d="M12.72,0c-2.05,0-3.71,1.66-3.71,3.71s1.66,3.71,3.71,3.71,3.71-1.66,3.71-3.71-1.66-3.71-3.71-3.71ZM4.77,3.18c-1.46,0-2.65,1.19-2.65,2.65s1.19,2.65,2.65,2.65,2.65-1.19,2.65-2.65-1.19-2.65-2.65-2.65Zm15.91,0c-1.46,0-2.65,1.19-2.65,2.65s1.19,2.65,2.65,2.65,2.65-1.19,2.65-2.65-1.19-2.65-2.65-2.65Zm-7.95,6.36c-2.48,0-7.42,1.24-7.42,3.71v2.65c0,.59,.48,1.06,1.06,1.06h12.72c.59,0,1.06-.48,1.06-1.06v-2.65c0-2.47-4.95-3.71-7.42-3.71Zm-8.59,1.12c-1.68,.26-4.13,1.42-4.13,2.81v2.43c0,.59,.48,1.06,1.06,1.06H3.18v-3.71c0-1.02,.37-1.87,.95-2.6Zm17.18,0c.59,.72,.95,1.58,.95,2.6v3.71h2.12c.59,0,1.06-.48,1.06-1.06v-2.43c0-1.4-2.46-2.55-4.13-2.81Z"/></g></svg>