<svg xmlns="http://www.w3.org/2000/svg" viewBox="0 0 248.62 22.65"><g><g><path d="M94.19,6.77c-.13-.9-.52-1.59-1.17-2.06-.64-.47-1.46-.71-2.45-.71-.75,0-1.39,.15-1.92,.45-.53,.3-.96,.71-1.29,1.2-.34,.5-.58,1.07-.73,1.71-.15,.64-.22,1.29-.22,1.96s.07,1.32,.22,1.96c.15,.64,.39,1.2,.73,1.71,.34,.5,.76,.9,1.29,1.2,.52,.3,1.17,.45,1.92,.45,1.11,0,1.96-.3,2.57-.88,.61-.59,.96-1.4,1.04-2.43h4.67c-.07,1.15-.32,2.18-.76,3.1-.43,.91-1.01,1.68-1.72,2.3-.72,.63-1.57,1.11-2.54,1.43-.97,.33-2.02,.49-3.16,.49-1.35,0-2.58-.25-3.69-.73-1.1-.49-2.04-1.15-2.82-2-.78-.84-1.38-1.83-1.79-2.96-.42-1.13-.63-2.34-.63-3.65s.2-2.52,.63-3.65c.42-1.13,1.01-2.12,1.79-2.96,.78-.84,1.72-1.51,2.82-1.99,1.11-.49,2.34-.73,3.69-.73,.97,0,1.94,.15,2.9,.45,.96,.3,1.83,.74,2.59,1.31,.77,.58,1.4,1.29,1.9,2.13,.49,.85,.76,1.81,.79,2.87h-4.67Z" style="fill:#1a1a1a;"/><path d="M100.66,9.33c0-1.3,.2-2.52,.59-3.65,.39-1.13,.96-2.12,1.72-2.96,.75-.84,1.67-1.51,2.77-1.99,1.09-.49,2.34-.73,3.75-.73s2.66,.24,3.75,.73c1.1,.49,2.02,1.15,2.77,1.99,.75,.85,1.32,1.84,1.72,2.96,.39,1.13,.59,2.34,.59,3.65s-.2,2.52-.59,3.65c-.39,1.13-.96,2.12-1.72,2.96-.75,.84-1.68,1.51-2.77,2-1.09,.48-2.34,.73-3.75,.73s-2.65-.25-3.75-.73c-1.1-.49-2.02-1.15-2.77-2-.75-.84-1.32-1.83-1.72-2.96-.4-1.13-.59-2.34-.59-3.65Zm4.67,0c0,.67,.08,1.32,.23,1.96,.15,.64,.39,1.2,.73,1.71,.34,.5,.77,.9,1.29,1.2,.52,.3,1.17,.45,1.91,.45s1.39-.15,1.92-.45c.53-.3,.96-.71,1.29-1.2,.33-.51,.58-1.07,.73-1.71,.15-.64,.23-1.29,.23-1.96s-.08-1.32-.23-1.96c-.15-.64-.4-1.2-.73-1.71-.34-.5-.77-.9-1.29-1.2-.52-.3-1.17-.45-1.92-.45s-1.39,.15-1.91,.45c-.53,.3-.96,.71-1.29,1.2-.34,.5-.58,1.07-.73,1.71-.15,.64-.23,1.29-.23,1.96Z" style="fill:#1a1a1a;"/><path d="M120.88,13.62h4.67v4.67h-4.67v-4.67Z" style="fill:#1a1a1a;"/><path d="M128.8,13.62h4.67v4.14c0,.9-.15,1.66-.46,2.25-.31,.6-.7,1.09-1.17,1.47-.47,.37-.98,.65-1.52,.83-.54,.18-1.05,.29-1.52,.34v-2c.68-.19,1.18-.46,1.48-.83,.3-.37,.49-.88,.58-1.53h-2.06v-4.67Z" style="fill:#1a1a1a;"/><path d="M136.7,.37h4.67V14.27h8.35v4.02h-13.02V.37Z" style="fill:#1a1a1a;"/><path d="M166.22,4.39h-5.35v13.9h-4.67V4.39h-5.34V.37h15.35V4.39Z" style="fill:#1a1a1a;"/><path d="M168.28,.37h7.7c1.38,0,2.6,.2,3.69,.6,1.08,.4,2,.98,2.76,1.75,.75,.77,1.32,1.7,1.73,2.8,.4,1.09,.6,2.34,.6,3.72,0,1.48-.2,2.77-.6,3.89-.4,1.12-.98,2.06-1.75,2.82-.76,.76-1.68,1.34-2.77,1.73-1.09,.4-2.3,.59-3.66,.59h-7.7V.37Zm4.67,13.89h2.21c.89-.01,1.64-.12,2.27-.31,.63-.19,1.14-.49,1.53-.89,.4-.4,.68-.92,.87-1.54,.18-.63,.28-1.4,.28-2.3,0-1.63-.42-2.86-1.27-3.65-.84-.79-2.07-1.19-3.67-1.19h-2.21V14.27Z" style="fill:#1a1a1a;"/><path d="M187.34,13.62h4.67v4.67h-4.67v-4.67Z" style="fill:#1a1a1a;"/></g><g><g><path d="M0,.46H5.67l5.24,9.62h.05V.46h5.24V18.45h-5.39L5.29,8.62h-.05v9.83H0V.46Z" style="fill:#1a1a1a;"/><path d="M39.54,.46h5.54V6.71h5.19V.46h5.55V18.45h-5.55v-7.13h-5.19v7.13h-5.54V.46Z" style="fill:#1a1a1a;"/><path d="M63.06,5.07h-5.04V.46h15.62V5.07h-5.04v13.37h-5.54V5.07Z" style="fill:#1a1a1a;"/></g><path d="M27.87,5.25c2.42,0,4.39,1.97,4.39,4.39s-1.97,4.4-4.39,4.4-4.39-1.97-4.39-4.4,1.97-4.39,4.39-4.39m0-4.66c-5,0-9.05,4.06-9.05,9.06s4.05,9.06,9.05,9.06,9.05-4.06,9.05-9.06S32.87,.59,27.87,.59h0Z" style="fill:#1a1a1a;"/></g></g><g><path d="M203.71,.67V12.33c0,1.42,.42,2.55,1.25,3.4s1.96,1.27,3.38,1.27,2.53-.42,3.37-1.27c.84-.85,1.26-1.98,1.26-3.4V.67h2.08V12.33c0,1.96-.62,3.55-1.85,4.76-1.23,1.21-2.85,1.82-4.86,1.82-1.31,0-2.48-.27-3.5-.82-1.02-.55-1.81-1.33-2.36-2.34-.56-1.01-.83-2.16-.83-3.46V.67h2.07Z"/><path d="M218.51,13.75h2.1c.1,.95,.54,1.74,1.32,2.34,.79,.61,1.85,.91,3.2,.91,1.27,0,2.29-.29,3.05-.88s1.15-1.38,1.15-2.38c0-.75-.24-1.35-.72-1.82s-1.22-.84-2.24-1.1l-3.2-.85c-1.2-.31-2.19-.85-2.96-1.6-.77-.75-1.16-1.76-1.16-3.03,0-1.07,.29-2,.88-2.79,.59-.79,1.34-1.38,2.25-1.75,.91-.37,1.9-.56,2.96-.56,.77,0,1.5,.1,2.19,.3s1.34,.5,1.93,.88c.59,.39,1.07,.92,1.42,1.59,.36,.67,.55,1.43,.58,2.28h-2.1c-.1-.94-.49-1.7-1.18-2.28s-1.66-.87-2.89-.87c-1.16,0-2.11,.27-2.84,.8s-1.09,1.29-1.09,2.25c0,1.38,.85,2.29,2.54,2.73l3.13,.84c1.5,.42,2.65,1,3.44,1.74,.79,.75,1.19,1.78,1.19,3.09,0,1.7-.62,3.01-1.86,3.93-1.24,.92-2.83,1.38-4.75,1.38-1.1,0-2.07-.16-2.92-.47s-1.51-.73-1.98-1.25c-.47-.52-.82-1.06-1.06-1.64s-.37-1.17-.38-1.79Z"/><path d="M235.9,18.54h-2.15L240.18,.67h2.03l6.41,17.87h-2.26l-1.85-5.51h-6.76l-1.85,5.51Zm5.28-15.29h-.07l-2.75,8.09h5.58l-2.75-8.09Z"/></g></svg>