<svg xmlns="http://www.w3.org/2000/svg" viewBox="0 0 296.11 34.93"><g><path d="M145.26,10.44c-.21-1.39-.81-2.45-1.8-3.17-.99-.72-2.25-1.09-3.77-1.09-1.16,0-2.15,.23-2.95,.7-.82,.46-1.48,1.09-1.99,1.86-.52,.78-.89,1.65-1.12,2.63-.23,.98-.34,1.99-.34,3.02s.11,2.04,.34,3.02c.23,.98,.61,1.85,1.12,2.63,.52,.77,1.18,1.39,1.99,1.86,.81,.46,1.8,.7,2.95,.7,1.7,0,3.02-.46,3.97-1.35,.94-.91,1.48-2.16,1.6-3.75h7.2c-.11,1.77-.49,3.37-1.17,4.78-.66,1.41-1.56,2.59-2.66,3.55-1.11,.97-2.42,1.71-3.91,2.21-1.49,.5-3.12,.76-4.87,.76-2.09,0-3.98-.38-5.69-1.12-1.7-.75-3.15-1.78-4.35-3.08-1.2-1.3-2.12-2.82-2.77-4.56-.65-1.74-.96-3.61-.96-5.63s.31-3.89,.96-5.62c.64-1.74,1.56-3.26,2.77-4.57,1.2-1.3,2.65-2.32,4.35-3.07,1.71-.76,3.6-1.12,5.69-1.12,1.5,0,2.98,.23,4.47,.7,1.48,.46,2.82,1.14,4,2.02,1.19,.9,2.16,1.99,2.93,3.29,.76,1.31,1.17,2.79,1.22,4.43h-7.2Z" style="fill:#1a1a1a;"/><path d="M155.23,14.39c0-2.01,.31-3.89,.92-5.62,.6-1.74,1.49-3.26,2.65-4.57,1.16-1.3,2.58-2.32,4.28-3.07,1.69-.76,3.61-1.12,5.78-1.12s4.1,.36,5.78,1.12c1.69,.75,3.12,1.77,4.28,3.07,1.16,1.31,2.04,2.83,2.65,4.57,.6,1.74,.91,3.61,.91,5.62s-.31,3.89-.91,5.63c-.6,1.74-1.49,3.26-2.65,4.56-1.16,1.3-2.59,2.33-4.28,3.08-1.68,.74-3.61,1.12-5.78,1.12s-4.09-.38-5.78-1.12c-1.7-.75-3.12-1.78-4.28-3.08-1.16-1.3-2.04-2.82-2.65-4.56-.61-1.74-.92-3.61-.92-5.63Zm7.2,0c0,1.03,.12,2.04,.35,3.02,.23,.98,.6,1.85,1.12,2.63,.52,.77,1.18,1.39,2,1.86,.81,.46,1.8,.7,2.95,.7s2.15-.24,2.96-.7c.82-.46,1.48-1.09,2-1.86,.51-.78,.89-1.65,1.12-2.63,.23-.98,.35-1.98,.35-3.02s-.12-2.04-.35-3.02c-.23-.98-.61-1.86-1.12-2.63-.52-.77-1.18-1.39-2-1.86-.81-.46-1.8-.7-2.96-.7s-2.14,.23-2.95,.7c-.82,.46-1.48,1.09-2,1.86-.52,.78-.9,1.65-1.12,2.63-.23,.98-.35,1.99-.35,3.02Z" style="fill:#1a1a1a;"/><path d="M186.41,21h7.2v7.2h-7.2v-7.2Z" style="fill:#1a1a1a;"/><path d="M198.63,21h7.2v6.39c0,1.39-.24,2.55-.72,3.48-.48,.93-1.08,1.68-1.8,2.27-.72,.58-1.51,1.01-2.34,1.27-.84,.27-1.62,.45-2.34,.52v-3.09c1.05-.29,1.82-.71,2.28-1.28,.46-.56,.76-1.35,.89-2.36h-3.17v-7.2Z" style="fill:#1a1a1a;"/><path d="M210.81,.58h7.2V22h12.88v6.19h-20.08V.58Z" style="fill:#1a1a1a;"/><path d="M256.34,6.76h-8.24V28.19h-7.2V6.76h-8.24V.58h23.68V6.76Z" style="fill:#1a1a1a;"/><path d="M259.51,.58h11.87c2.12,0,4.01,.31,5.69,.93,1.67,.62,3.09,1.52,4.26,2.71,1.15,1.19,2.04,2.63,2.67,4.32,.62,1.68,.93,3.6,.93,5.74,0,2.28-.31,4.27-.93,6-.62,1.73-1.52,3.18-2.69,4.35-1.17,1.17-2.59,2.07-4.27,2.67-1.68,.61-3.55,.91-5.65,.91h-11.87V.58Zm7.2,21.42h3.4c1.37-.02,2.53-.18,3.5-.48,.97-.29,1.76-.75,2.36-1.37,.61-.62,1.05-1.41,1.34-2.37,.29-.97,.42-2.16,.42-3.55,0-2.52-.65-4.4-1.96-5.62-1.3-1.22-3.19-1.84-5.66-1.84h-3.4v15.23Z" style="fill:#1a1a1a;"/><path d="M288.91,21h7.2v7.2h-7.2v-7.2Z" style="fill:#1a1a1a;"/></g><g><g><path d="M0,.71H8.74l8.08,14.84h.08V.71h8.08V28.45h-8.31L8.16,13.29h-.08v15.15H0V.71Z" style="fill:#1a1a1a;"/><path d="M60.97,.71h8.55V10.35h8V.71h8.55V28.45h-8.55v-10.99h-8v10.99h-8.55V.71Z" style="fill:#1a1a1a;"/><path d="M97.25,7.82h-7.77V.71h24.09V7.82h-7.77V28.45h-8.55V7.82Z" style="fill:#1a1a1a;"/></g><path d="M42.98,8.1c3.74,0,6.78,3.04,6.78,6.78s-3.04,6.78-6.78,6.78-6.78-3.04-6.78-6.78,3.04-6.78,6.78-6.78m0-7.19c-7.71,0-13.96,6.25-13.96,13.97s6.25,13.97,13.96,13.97,13.96-6.25,13.96-13.97S50.69,.91,42.98,.91h0Z" style="fill:#1a1a1a;"/></g></svg>