<?xml version="1.0" encoding="utf-8"?>
<!-- Generator: Adobe Illustrator 21.1.0, SVG Export Plug-In . SVG Version: 6.00 Build 0)  -->
<svg version="1.1" id="レイヤー_1" xmlns="http://www.w3.org/2000/svg" xmlns:xlink="http://www.w3.org/1999/xlink" x="0px"
	 y="0px" viewBox="0 0 500 500" style="enable-background:new 0 0 500 500;" xml:space="preserve">
<style type="text/css">
	.st0{fill:#354A56;}
</style>
<path class="st0" d="M246.4,57.2L81.1,153.6v192.9l165.3,96.4l165.3-96.4V153.6L246.4,57.2z M241.8,417.6l-66.4-116.2l66.4-38.7
	V417.6z M250.3,262.3l67.1,39.1l-67.1,117.4V262.3z M241.8,237.4l-66.4-38.7l66.4-116.2V237.4z M250.3,81.3l67.1,117.4l-67.1,39.1
	V81.3z M89.7,341.5l74.1-43.2l-27.6-48.2l-46.5,81.5V168.6l46.5,81.5l27.6-48.2l-74.1-43.2v-0.1L237.9,72l-74.2,129.8l78,45.5v5.4
	l-78,45.5l74.2,129.8L89.7,341.5L89.7,341.5z M104.4,323l31.8-55.7l15.9,27.8L104.4,323z M104.4,177.1l47.7,27.8l-15.9,27.8
	L104.4,177.1z M403.1,331.5l-46.5-81.5l-27.6,48.2l74.1,43.2v0.1l-148.2,86.5l74.2-129.8l-78.7-45.9v-4.6l78.7-45.9L254.9,72
	l148.2,86.5v0.1l-74.1,43.2l27.6,48.2l46.5-81.5V331.5z M388.4,323l-47.7-27.8l15.9-27.8L388.4,323z M388.4,177.1l-31.8,55.7
	l-15.9-27.8L388.4,177.1z"/>
<g>
</g>
<g>
</g>
<g>
</g>
<g>
</g>
<g>
</g>
<g>
</g>
<g>
</g>
<g>
</g>
<g>
</g>
<g>
</g>
<g>
</g>
<g>
</g>
<g>
</g>
<g>
</g>
<g>
</g>
</svg>
