<svg xmlns="http://www.w3.org/2000/svg" xmlns:xlink="http://www.w3.org/1999/xlink" x="0px"
	 y="0px" viewBox="0 0 500 250" style="enable-background:new 0 0 500 250;" xml:space="preserve">
<style type="text/css">
	.st0{fill:#1A1A1A;}
</style>
<g>
	<g>
		<path class="st0" d="M17.5,70h35.9l33.2,61H87V70h33.2v113.9H86l-34.9-62.2h-0.3v62.2H17.5V70z"/>
		<path class="st0" d="M268,70h35.1v39.6H336V70h35.1v113.9H336v-45.1h-32.9v45.1H268V70z"/>
		<path class="st0" d="M417,99.2h-31.9V70H484v29.2h-31.9v84.7H417V99.2z"/>
	</g>
	<path class="st0" d="M194.1,100.4c15.4,0,27.8,12.5,27.8,27.8S209.4,156,194.1,156s-27.8-12.5-27.8-27.8S178.7,100.4,194.1,100.4
		 M194.1,70.8c-31.7,0-57.4,25.7-57.4,57.4s25.7,57.4,57.4,57.4s57.4-25.7,57.4-57.4C251.4,96.5,225.8,70.8,194.1,70.8L194.1,70.8z"/>
</g>
</svg>
