<?xml version="1.0" encoding="utf-8"?>
<!-- Generator: Adobe Illustrator 21.1.0, SVG Export Plug-In . SVG Version: 6.00 Build 0)  -->
<svg version="1.1" id="レイヤー_1" xmlns="http://www.w3.org/2000/svg" xmlns:xlink="http://www.w3.org/1999/xlink" x="0px"
	 y="0px" viewBox="0 0 1000 500" style="enable-background:new 0 0 1000 500;" xml:space="preserve">
<style type="text/css">
	.st0{fill:none;stroke:#DCDCDC;stroke-width:2.1972;stroke-linecap:round;stroke-linejoin:round;stroke-miterlimit:10;}
</style>
<g>
	<path class="st0" d="M227.5,144.3c23.4,27.4,40,58.4,50.2,93c1.7,5.7,4.5,11.3,7.8,16.1c5.2,7.4,7.4,15.5,8.8,24.3
		c0.9,5.7,1.7,12.4,8.6,15.2"/>
	<path class="st0" d="M719.5,146.9c-0.9-5.8-3.5-11.2-2-17.6c1.4-5.8,2.2-10.5,9.4-12.1c5.4-1.2,8.3,0.4,11.1,4.4
		c3.7,5.2,8.5,10.6,4.6,17.1c-7.1,11.6-7.8,13.4-23.6,8.5c-7.9,6.5-12.3,16.4-16.4,25.4c-8.9,19.4-17.8,39-20.4,60.8
		c-1.2,10.7-0.8,21.4-1.4,32.1c-0.2,4,3.3,5.8,4,9.1"/>
	<path class="st0" d="M436.2,154.9c2.5,20.3,6.5,40.3,10.2,60.4c3.8,20.3,3.9,39.6-13.5,55.2c-7.4,6.7-2.9,15.3,0.5,22.9"/>
	<path class="st0" d="M375.9,165.2c7.9,17,8.7,34.9,7.5,53.3c-1,15.1-2.4,30.5,10.4,42.3"/>
	<path class="st0" d="M927,332.7c-24.2,9.1-48.3,18.5-72.7,27c-8.6,3-11.9,12.2-20.2,15"/>
	<path class="st0" d="M849.2,288.5c-6.8,4.9-9.6,13.1-15.3,18.9c-12.7,12.9-26.4,24.5-40.6,35.7c-3.6,2.9-7.9,5-12.1,4.6
		c-12.9-1.1-22.7,4.1-31.3,12.8c-2.2,2.2-4.7,4-7.1,6"/>
	<path class="st0" d="M185.3,389.8c-11.1-5.4-22.8-6.4-35.1-6.7c-16.7-0.3-33.4-2.4-50.2-3.3c-7-0.4-14.1,0.4-21.1,0.6"/>
	<path class="st0" d="M226.5,142.3c2.8-7.1,3.1-14.1-0.7-21.1c-3.9-6.9-8.7-6-15.1-3.4c-6.7,2.7-9.9,5.7-7.2,13.2
		c1.8,5,4.1,9.7,8,13c4.9,4.2,10.3,4.8,15-0.7"/>
	<path class="st0" d="M590.3,199c-0.6,14.1,1.2,28.4-4.2,42.2c-1.8,4.6-3.7,9.5-6.7,12.6c-12.1,12.9-25.6,24.2-41.2,33
		c-11.9,6.7-24.4,8.3-37.4,8.2c-6,0-12.9-0.1-16.8,3.3c-7.8,6.6-14.2,3.4-21.4,0.4c-15.5-6.4-30.1-7.4-44.4,4.3
		c-12.1,9.9-26.6,14.3-42.2,17c-17.4,3.1-34.3,8.6-51.4,13.1"/>
	<path class="st0" d="M314.8,315.1c-10-1.6-19.9-2.9-30.1-1.6c-6.8,0.9-13.7-0.8-19.6-4.4c-16,10.7-20.4,28.7-11,44.3
		c4.7,7.9,9.8,15.5,14.7,23.3"/>
	<path class="st0" d="M698.8,272.6c-9-0.4-16.5,2.7-22.2,9.8c-10.7,13.4-21.4,26.7-36.4,36c-6.3,3.9-11.4,10.4-12.5,18.6"/>
	<path class="st0" d="M794.3,268.8c-5.6,4.8-9.5,10.3-11.5,17.9c-4.4,16.5-19.5,19.2-33.2,22.6c-13.4,3.3-25.9,7.5-37.5,15.5
		c-10.2,7.2-13.7,17.1-13.9,28.2c-0.1,5.2-0.1,10.7,0.4,16.1"/>
	<path class="st0" d="M506.5,240.1c-5.1,2.9-10.5,5.4-15.1,8.9c-9.5,7.2-12.6,16.8-7.1,27.8c3.5,7.1-1.9,13.8,1.4,20.3"/>
	<path class="st0" d="M671.7,358.6c-12.7-12-28.7-17-45-21.4c-1.6-0.4-4.3,1.4-6,2.8c-15.3,12.2-32.1,10.7-49.3,5.4
		c-1.9-0.6-4-0.8-6-1.1"/>
	<path class="st0" d="M477.6,304c-4.3,21.4,0.6,32.4,19.6,42.3c5.1,2.7,10.5,4.4,12.9,10.3"/>
	<path class="st0" d="M134.9,326.9c5.3,7.8,11.1,15.1,19.9,19.3c5.7,2.7,8.2,8,9.7,13.3c2.1,7.6,6.5,14.7,4.9,23.1"/>
	<path class="st0" d="M518,202.1c-0.4,17.3,1,34.8-6.7,51.1"/>
	<path class="st0" d="M190.5,293.5c9.4,4.9,19.4,9,22,21.3c0.7,3.4,1.3,6.8-0.5,8.9c-4.2,5-6.8,11.4-11.3,15.8
		c-4.3,4.2-5,8.9-3.7,13.2c3.6,12.1-0.3,23.5-1.7,35.2"/>
	<path class="st0" d="M331,217.9c3.7,13,8.4,25.5,16.7,36.3c3.7,4.7,4.1,7.4-1.2,11.3c-6.4,4.6-10,12-13.1,18.9
		c-2.9,6.5-6.5,12-11.5,16.8"/>
	<path class="st0" d="M391.2,308c-5-1.2-8-5.3-9.7-9.3c-2.8-6.5-7.3-6.7-13.2-7.3c-12.5-1.2-24.7,3.5-37.2,0.8"/>
	<path class="st0" d="M520.5,241.3c4.1,1.2,3.5,5.3,4.9,8.1c5.7,11.2,11.7,22.2,21.7,30.4"/>
	<path class="st0" d="M165.5,284.1c0.9,5.4,1.2,11,3,16c2.6,7.5,3.2,14.7,0.6,22.2"/>
	<path class="st0" d="M748.6,310.4c4.9,12.8,9.7,25.6,14.6,38.3"/>
	<path class="st0" d="M248.6,310.2c-3.7,0.2-6-2.9-9-4c-9.3-3.3-18.9-5.7-28.1,0.6"/>
	<path class="st0" d="M191,339.7c-15.1-8.9-21-8.7-30.1,0.6"/>
	<path class="st0" d="M350.5,265.3c11.1,5.6,23.1,6.4,35,5.2c5.4-0.5,10.8-0.1,16.1-0.5"/>
	<path class="st0" d="M722.3,245.8c-4.1,7.9-6.1,16.5-8.3,25"/>
	<path class="st0" d="M213.2,324.9c6.9,6.5,16.6,7.8,23.9,13.3"/>
	<path class="st0" d="M634.5,281.9c-7.2-2.4-14.7-0.5-22.1-1.3"/>
	<path class="st0" d="M510.6,309.5c7.3,4.1,14.6,8.2,21.9,12.3"/>
	<path class="st0" d="M683.1,325.6c-6-5.7-10.7-13.8-20.9-12.3"/>
	<path class="st0" d="M274,282.4c3,1.4,6,2.7,9,4.1c5.8,2.8,5.2,6.3,0.9,10"/>
	<path class="st0" d="M382,321.9c-1.8,6.7-3.5,13.3-5.3,20"/>
	<path class="st0" d="M408.6,274.1c6.4,1,12,5.8,19,4.3"/>
	<path class="st0" d="M155,327.2c-4.7,4.5-11.1-0.1-16.1,2.8"/>
	<path class="st0" d="M660.5,284.2c-5.3-0.4-10.7-0.8-16-1.2"/>
	<path class="st0" d="M409.9,251c-8.7,4-16.6,9-21.3,17.8"/>
	<path class="st0" d="M695.5,298.7c1,6.5,6.4,9.5,10.9,13.2"/>
	<path class="st0" d="M379.5,272.7c-0.7,6.3-1.5,12.7-2.2,19"/>
</g>
<g>
</g>
<g>
</g>
<g>
</g>
<g>
</g>
<g>
</g>
<g>
</g>
<g>
</g>
<g>
</g>
<g>
</g>
<g>
</g>
<g>
</g>
<g>
</g>
<g>
</g>
<g>
</g>
<g>
</g>
</svg>
