<svg class="svg-LogoJp" xmlns="http://www.w3.org/2000/svg" viewBox="0 0 316.7 37"><title>logo_noht_jp</title><path d="M26.6,15.6h5.9c1.8,0,3-.1,4.3-.2v4.5c-1.3-.1-2.6-.2-4.3-.2H28a25.46,25.46,0,0,0,9.9,9.9,11.07,11.07,0,0,0-2.8,4.1,25,25,0,0,1-4.5-4.2,29.57,29.57,0,0,1-4.3-6.1c.1,1.4.2,2.8.2,3.9v5c0,1.9.1,3.3.2,4.6H22.1a31.74,31.74,0,0,0,.2-4.6V27.6a31.78,31.78,0,0,1,.2-4.1,29.25,29.25,0,0,1-9.4,10.3A16.56,16.56,0,0,0,10.6,30,25.93,25.93,0,0,0,20.7,19.6H18.1c-1.8,0-3,.1-4.3.2V18.2a12.76,12.76,0,0,0-1.7,3.3,21.11,21.11,0,0,1-2.4-5c.1,1.3.2,3.5.2,5.3V32c0,2.1.1,3.6.2,4.9H5.5A34,34,0,0,0,5.7,32V23.5A34.69,34.69,0,0,1,6,18.4a31.41,31.41,0,0,1-4.2,9.4A15,15,0,0,0,0,23.4c2-2.5,4.1-7.2,5.3-12H3.7a10.59,10.59,0,0,0-2.7.2V7.3a9.81,9.81,0,0,0,2.7.2h2V4.3A35.16,35.16,0,0,0,5.5.2h4.6a38.06,38.06,0,0,0-.2,4.1V7.5h1.2a6.19,6.19,0,0,0,2.1-.2v3.9a24.71,24.71,0,0,0,3-9.7l4.1,1a11.93,11.93,0,0,0-.6,2.1c-.2.9-.3,1.2-.5,1.9h3.2V3.8A36.25,36.25,0,0,0,22.2,0h4.6a20.08,20.08,0,0,0-.2,3.8V6.5h4.7c1.9,0,3.1-.1,4.3-.2v4.4a26.89,26.89,0,0,0-4.3-.2H26.6v5.1Zm-8.6-5A30,30,0,0,1,15.8,15a16.63,16.63,0,0,0-3.3-2.6,4.62,4.62,0,0,0,.7-1,11.48,11.48,0,0,0-1.9-.1h-1A26.39,26.39,0,0,0,14,17.6V15.3a26.89,26.89,0,0,0,4.3.2h4.2v-5H18Z"/><path d="M79.9,7a20.13,20.13,0,0,0,3.9-.2v4.5a30.41,30.41,0,0,0-4.7-.2H73.3c.4,6.9,1.2,11.7,2.8,15.3a13.18,13.18,0,0,0,2.4,3.9,3,3,0,0,0,.9.7c.5,0,1-1.9,1.5-6a15.32,15.32,0,0,0,3.8,2.2c-.6,3.8-1.3,6-2.3,7.5a3.44,3.44,0,0,1-2.7,1.7c-1.5,0-3.5-1.5-5.3-3.9-2-2.8-3.5-6.8-4.4-12A65.33,65.33,0,0,1,69,11H53.1c-1.8,0-3.2.1-4.7.2V6.7a31.09,31.09,0,0,0,4.7.2H68.9c-.1-2.1-.1-2.1-.1-3.3A26.89,26.89,0,0,0,68.6.5h4.8c-.1,1-.2,2.1-.2,3.2V6.8h4.7a22.41,22.41,0,0,0-3.8-4.7L77.6.5A30.05,30.05,0,0,1,81.5,5L78.3,6.8h1.6Zm-26,12.8c-1.5,0-2.9.1-4,.2V15.8A39.62,39.62,0,0,0,54,16h9.6a37.42,37.42,0,0,0,4-.2V20c-1.2-.1-2.5-.2-4-.2H60.9v9c2.8-.6,4.3-.9,8.2-1.8v4.1c-6.7,1.6-13,2.9-18.3,3.7a13,13,0,0,1-1.5.3l-.7-4.5a52.54,52.54,0,0,0,8-.9V19.9H53.9Z"/><path d="M103.3,13.2a35.53,35.53,0,0,1-6.4,3.4,20.56,20.56,0,0,0-2.3-4.1,37.78,37.78,0,0,0,10-5.5A24.94,24.94,0,0,0,110.9.3h4.7a24.76,24.76,0,0,0,6.7,6.6,41.84,41.84,0,0,0,10.2,5.4,18.68,18.68,0,0,0-2.2,4.5,50.54,50.54,0,0,1-6.8-3.6v3.1a33.63,33.63,0,0,0-3.6-.2H106.6a18.85,18.85,0,0,0-3.4.2V13.2Zm-2.2,10.2c-2,0-3.4.1-4.7.2V19a32.49,32.49,0,0,0,4.7.2h24.8c1.9,0,3.3-.1,4.7-.2v4.6a31.79,31.79,0,0,0-4.7-.2H112.2a43.23,43.23,0,0,1-4.1,7.7c7-.4,7-.4,12.6-1-1.3-1.4-1.9-2.1-4.2-4.4l3.9-1.8a79.09,79.09,0,0,1,9.2,10.6L125.8,37c-1.3-1.9-1.7-2.5-2.4-3.5q-4.95.6-7.2.9c-3.9.4-11.8,1.1-13.4,1.2-2.2.2-4.2.4-5.1.6l-.6-4.9a23,23,0,0,0,2.3.1,34.59,34.59,0,0,0,3.5-.2,45.1,45.1,0,0,0,4.3-8h-6.1ZM120,11.9h1.8a32.48,32.48,0,0,1-8.3-7.7,34.67,34.67,0,0,1-8.3,7.7H120Z"/><path d="M152.8,32.8a23.68,23.68,0,0,0,.2,4.1h-4.8a24.29,24.29,0,0,0,.2-4.1v-10a31.86,31.86,0,0,1-4.4,3.4,17.36,17.36,0,0,0-2-4.1,25.74,25.74,0,0,0,6.8-5.4,22.36,22.36,0,0,0,4.3-6.1h-6.5a16.19,16.19,0,0,0-3.3.2V6.4a26.89,26.89,0,0,0,3.1.2h2V3.3a28.32,28.32,0,0,0-.2-3H153a14.19,14.19,0,0,0-.2,3.1V6.7h1.6a12.89,12.89,0,0,0,2.3-.1l1.9,2.1a9.15,9.15,0,0,0-.9,1.7,31.12,31.12,0,0,1-4,6.8,26.56,26.56,0,0,0,6.3,5.1,15,15,0,0,0-2.2,3.9,21.71,21.71,0,0,1-5.1-4.5V32.8Zm16.8-1.9h4.8c2,0,3.3-.1,4.5-.2v4.8a31.86,31.86,0,0,0-4.5-.3H160.8a31.86,31.86,0,0,0-4.5.3V30.7a31,31,0,0,0,4.6.2h4.3V15.4h-3c-1.4,0-2.6.1-3.9.2V11.1a22.4,22.4,0,0,0,3.9.2h3v-7a27.28,27.28,0,0,0-.3-4.1h5a27.28,27.28,0,0,0-.3,4.1v7h4.2a21.25,21.25,0,0,0,3.9-.2v4.5c-1.3-.1-2.5-.2-3.9-.2h-4.2V30.9Z"/><path d="M222,4a29.4,29.4,0,0,0-1.4,3.4,49.44,49.44,0,0,1-10.7,17.3,47.83,47.83,0,0,1-13.8,9.5,17.9,17.9,0,0,0-3.5-4.8c9.3-3.7,15.5-9.1,20-17.2a36.49,36.49,0,0,0,4-10.1Z"/><path d="M238.3,15.5a43.22,43.22,0,0,0,6.4.3h21.2a31.85,31.85,0,0,0,6.4-.3V21a43.4,43.4,0,0,0-6.5-.2H244.7a43.4,43.4,0,0,0-6.5.2V15.5Z"/><path d="M293.4,35.4a27.63,27.63,0,0,0,.2-4.5V5.4a39.61,39.61,0,0,0-.2-4.1h5.4a21.39,21.39,0,0,0-.2,4.2v7.4a114,114,0,0,1,18.1,8.4L313.9,26a91.92,91.92,0,0,0-14.1-7.6c-.9-.4-1-.5-1.4-.7a24.52,24.52,0,0,1,.2,2.7V30.9a26.94,26.94,0,0,0,.2,4.4h-5.4Z"/></svg>