<svg class="svg-LogoLong" xmlns="http://www.w3.org/2000/svg" viewBox="0 0 544.2 64.3"><defs><style>.svg-LogoLong_Path{fill:#1a1a1a;}</style></defs><title>logo_noht_long</title><path class="svg-LogoLong_Path" d="M267,19.3a8.31,8.31,0,0,0-3.3-5.8,11.51,11.51,0,0,0-6.9-2,10.29,10.29,0,0,0-5.4,1.3,12,12,0,0,0-3.7,3.4,14.9,14.9,0,0,0-2.1,4.8,25.73,25.73,0,0,0-.6,5.5,25.05,25.05,0,0,0,.6,5.5,13,13,0,0,0,2.1,4.8,10.94,10.94,0,0,0,3.7,3.4,11.34,11.34,0,0,0,5.4,1.3c3.1,0,5.6-.8,7.3-2.5a10.43,10.43,0,0,0,2.9-6.9h13.2a24.21,24.21,0,0,1-2.1,8.8,18.92,18.92,0,0,1-4.9,6.5,21.16,21.16,0,0,1-7.2,4.1,28.32,28.32,0,0,1-9,1.4,25.91,25.91,0,0,1-10.5-2.1,24.31,24.31,0,0,1-8-5.7,25.58,25.58,0,0,1-5.1-8.4,29,29,0,0,1-1.8-10.3,29,29,0,0,1,1.8-10.3,25.58,25.58,0,0,1,5.1-8.4,22.69,22.69,0,0,1,8-5.6A25.24,25.24,0,0,1,257,0a26,26,0,0,1,8.2,1.3A24.47,24.47,0,0,1,272.6,5a20.63,20.63,0,0,1,5.4,6,16.89,16.89,0,0,1,2.2,8.1H267Z"/><path class="svg-LogoLong_Path" d="M285.3,26.6A31.34,31.34,0,0,1,287,16.3a23.55,23.55,0,0,1,4.9-8.4,20.66,20.66,0,0,1,7.9-5.6,27.8,27.8,0,0,1,21.2,0,25.14,25.14,0,0,1,7.9,5.6,25.12,25.12,0,0,1,4.9,8.4,32.05,32.05,0,0,1,0,20.6,23.55,23.55,0,0,1-4.9,8.4A22.91,22.91,0,0,1,321,51a27.8,27.8,0,0,1-21.2,0,23.9,23.9,0,0,1-7.9-5.7,25.12,25.12,0,0,1-4.9-8.4A31.34,31.34,0,0,1,285.3,26.6Zm13.2,0a25.06,25.06,0,0,0,.6,5.5,13,13,0,0,0,2.1,4.8,10.94,10.94,0,0,0,3.7,3.4,11.34,11.34,0,0,0,5.4,1.3,10.29,10.29,0,0,0,5.4-1.3,12,12,0,0,0,3.7-3.4,17.45,17.45,0,0,0,2.1-4.8,25.51,25.51,0,0,0,0-11,13,13,0,0,0-2.1-4.8,10.94,10.94,0,0,0-3.7-3.4,11.87,11.87,0,0,0-10.8,0,12,12,0,0,0-3.7,3.4,14.9,14.9,0,0,0-2.1,4.8A25.06,25.06,0,0,0,298.5,26.6Z"/><path class="svg-LogoLong_Path" d="M342.6,38.7h13.2V52H342.6Z"/><path class="svg-LogoLong_Path" d="M365.1,38.7h13.2V50.4a13.51,13.51,0,0,1-1.3,6.4,14,14,0,0,1-3.3,4.2,11.27,11.27,0,0,1-4.3,2.3,26.31,26.31,0,0,1-4.3,1V58.6a7.44,7.44,0,0,0,4.2-2.4,7.63,7.63,0,0,0,1.6-4.3h-5.8V38.7Z"/><path class="svg-LogoLong_Path" d="M387.5,1.2h13.2V40.6h23.7V52H387.5Z"/><path class="svg-LogoLong_Path" d="M471.1,12.6H455.9V52H442.7V12.6H427.6V1.2h43.5Z"/><path class="svg-LogoLong_Path" d="M477,1.2h21.8a31.24,31.24,0,0,1,10.5,1.7,19.79,19.79,0,0,1,7.8,5,22,22,0,0,1,4.9,7.9,31.24,31.24,0,0,1,1.7,10.5,33.44,33.44,0,0,1-1.7,11,20.8,20.8,0,0,1-4.9,8,21.1,21.1,0,0,1-7.8,4.9,30.65,30.65,0,0,1-10.4,1.7H477.1V1.2Zm13.2,39.4h6.3a19.73,19.73,0,0,0,6.4-.9,9.62,9.62,0,0,0,4.3-2.5,11.05,11.05,0,0,0,2.5-4.4,24.56,24.56,0,0,0,.8-6.5c0-4.6-1.2-8.1-3.6-10.3s-5.9-3.4-10.4-3.4h-6.3Z"/><path class="svg-LogoLong_Path" d="M531,38.7h13.2V52H531Z"/><path class="svg-LogoLong_Path" d="M0,1.5H16.1L31,28.8h.1V1.5H46v51H30.7L15.1,24.6H15V52.5H.1V1.5Z"/><path class="svg-LogoLong_Path" d="M112.1,1.5h15.7V19.2h14.7V1.5h15.7v51H142.5V32.3H127.8V52.5H112.1V1.5Z"/><path class="svg-LogoLong_Path" d="M178.8,14.5H164.5V1.5h44.3V14.6H194.5V52.5H178.8Z"/><path class="svg-LogoLong_Path" d="M79,15A12.5,12.5,0,1,1,66.5,27.5,12.5,12.5,0,0,1,79,15M79,1.8a25.7,25.7,0,1,0,25.7,25.7A25.69,25.69,0,0,0,79,1.8Z"/></svg>